<svg xmlns="http://www.w3.org/2000/svg" xmlns:xlink="http://www.w3.org/1999/xlink" fill="none" version="1.1" width="16" height="16" viewBox="0 0 16 16"><defs><clipPath id="master_svg0_1_3999"><rect x="0" y="0" width="16" height="16" rx="0"/></clipPath></defs><g clip-path="url(#master_svg0_1_3999)"><g transform="matrix(1,0,0,-1,0,32.668243408203125)"><g><path d="M12.85605444869995,25.10576170410156L13.22955444869995,25.44951170410156L12.85605444869995,25.10576170410156L13.22955444869995,25.44951170410156L12.171254448699951,26.512021704101564L10.241254448699951,28.449521704101564L9.182894448699951,29.512021704101564L8.80935444869995,29.168221704101562L8.124524448699951,28.449521704101564L1.9299744486999513,22.230751704101564Q1.4319244486999512,21.730751704101564,1.2140244486999512,21.074501704101564L0.12452974869995118,17.293256704101562Q0.00001614869995117396,16.887006704101562,0.31130044869995116,16.574506704101562Q0.6225844486999512,16.26200630410156,1.0583814486999512,16.35575630410156L4.793794448699951,17.480751704101564Q5.478614448699951,17.668251704101564,5.976674448699951,18.168251704101564L12.171254448699951,24.38701170410156L12.85605444869995,25.10576170410156ZM5.073944448699951,19.855751704101564L4.793794448699951,19.137001704101564L5.073944448699951,19.855751704101564L4.793794448699951,19.137001704101564Q4.607024448699951,18.980751704101564,4.389124448699951,18.918251704101564L1.9299744486999513,18.199501704101564L2.645934448699951,20.637001704101564Q2.739314448699951,20.855751704101564,2.863824448699951,21.043251704101564L3.579784448699951,21.324501704101564L3.579784448699951,20.324501704101564Q3.610914448699951,19.887001704101564,4.077834448699951,19.824501704101564L5.073944448699951,19.824501704101564L5.073944448699951,19.855751704101564ZM11.393054448699951,31.730721704101562L10.92605444869995,31.293221704101562L11.393054448699951,31.730721704101562L10.92605444869995,31.293221704101562L10.241254448699951,30.574521704101564L9.867724448699951,30.230721704101562L10.92605444869995,29.168221704101562L12.85605444869995,27.230721704101562L13.914454448699951,26.16826170410156L14.25685444869995,26.512021704101564L14.972754448699952,27.230721704101562L15.439654448699951,27.668221704101562Q16.00005444869995,28.293221704101562,16.00005444869995,29.105721704101562Q16.00005444869995,29.887021704101564,15.439654448699951,30.512021704101564L14.194554448699952,31.730721704101562Q13.603154448699952,32.324521704101564,12.793754448699952,32.324521704101564Q12.015554448699952,32.324521704101564,11.393054448699951,31.730721704101562ZM9.89884444869995,26.480721704101562L5.416354448699951,21.980751704101564L9.89884444869995,26.480721704101562L5.416354448699951,21.980751704101564Q5.073944448699951,21.699501704101564,4.731534448699951,21.980751704101564Q4.420254448699951,22.355751704101564,4.731534448699951,22.699501704101564L9.21402444869995,27.199521704101564Q9.556434448699951,27.480721704101562,9.89884444869995,27.199521704101564Q10.210154448699951,26.855721704101562,9.89884444869995,26.480721704101562Z" fill="#FFFFFF" fill-opacity="1" style="mix-blend-mode:passthrough"/></g></g></g></svg>