<svg xmlns="http://www.w3.org/2000/svg" xmlns:xlink="http://www.w3.org/1999/xlink" fill="none" version="1.1" width="15.75" height="14" viewBox="0 0 15.75 14"><defs><clipPath id="master_svg0_1_4635"><rect x="0" y="0" width="15.75" height="14" rx="0"/></clipPath></defs><g clip-path="url(#master_svg0_1_4635)"><g transform="matrix(1,0,0,-1,0,26.6874942779541)"><g><path d="M7.861551205508709,24.28124713897705Q6.533231205508709,24.25394713897705,5.448891205508709,23.73434713897705Q4.364561205508709,23.24218713897705,3.524201205508709,22.42186713897705Q2.738051205508709,21.683587138977053,2.195881205508709,20.890627138977052Q1.680821205508709,20.097657138977052,1.3826312055087089,19.46874713897705Q1.680821205508709,18.83983713897705,2.195881205508709,18.04686713897705Q2.738051205508709,17.253907138977052,3.524201205508709,16.515627138977052Q4.364561205508709,15.69530713897705,5.448891205508709,15.20312713897705Q6.533231205508709,14.683587138977051,7.861551205508709,14.65624713897705Q9.18986120550871,14.683587138977051,10.27417120550871,15.20312713897705Q11.358571205508708,15.69530713897705,12.19887120550871,16.515627138977052Q12.985071205508708,17.253907138977052,13.52717120550871,18.04686713897705Q14.042271205508708,18.83983713897705,14.34047120550871,19.46874713897705Q14.042271205508708,20.097657138977052,13.52717120550871,20.890627138977052Q12.985071205508708,21.683587138977053,12.19887120550871,22.42186713897705Q11.358571205508708,23.24218713897705,10.27417120550871,23.73434713897705Q9.18986120550871,24.25394713897705,7.861551205508709,24.28124713897705ZM2.629621205508709,23.37894713897705Q3.605521205508709,24.30854713897705,4.906731205508709,24.937547138977052Q6.207931205508709,25.56644713897705,7.861551205508709,25.59374713897705Q9.51516120550871,25.56644713897705,10.816371205508709,24.937547138977052Q12.117571205508709,24.30854713897705,13.09347120550871,23.37894713897705Q14.042271205508708,22.47655713897705,14.665771205508708,21.51952713897705Q15.289271205508708,20.56249713897705,15.614571205508708,19.796877138977052Q15.750071205508709,19.46874713897705,15.614571205508708,19.140627138977052Q15.289271205508708,18.37499713897705,14.665771205508708,17.41796713897705Q14.042271205508708,16.46093713897705,13.09347120550871,15.558587138977051Q12.117571205508709,14.62890713897705,10.816371205508709,13.99999713897705Q9.51516120550871,13.371090938977051,7.861551205508709,13.34374713897705Q6.207931205508709,13.371090938977051,4.906731205508709,13.99999713897705Q3.605521205508709,14.62890713897705,2.629621205508709,15.558587138977051Q1.680821205508709,16.46093713897705,1.057329205508709,17.41796713897705Q0.43383520550870897,18.37499713897705,0.13564230550870895,19.140627138977052Q0.00010010550870895307,19.46874713897705,0.13564230550870895,19.796877138977052Q0.43383520550870897,20.56249713897705,1.057329205508709,21.51952713897705Q1.680821205508709,22.47655713897705,2.629621205508709,23.37894713897705ZM7.861551205508709,17.28124713897705Q8.78323120550871,17.30858713897705,9.40673120550871,17.910157138977052Q10.00311120550871,18.53905713897705,10.03022120550871,19.46874713897705Q10.00311120550871,20.39843713897705,9.40673120550871,21.02733713897705Q8.78323120550871,21.62890713897705,7.861551205508709,21.65624713897705Q7.834441205508709,21.65624713897705,7.834441205508709,21.65624713897705L7.807331205508709,21.65624713897705Q7.861551205508709,21.43749713897705,7.861551205508709,21.21874713897705Q7.834441205508709,20.48046713897705,7.3464812055087085,19.98827713897705Q6.858531205508709,19.49608713897705,6.126601205508709,19.46874713897705Q5.909741205508709,19.46874713897705,5.692871205508709,19.52343713897705Q5.692871205508709,19.49608713897705,5.692871205508709,19.49608713897705L5.692871205508709,19.46874713897705Q5.719981205508709,18.53905713897705,6.316361205508709,17.910157138977052Q6.939861205508709,17.30858713897705,7.861551205508709,17.28124713897705ZM7.861551205508709,22.96874713897705Q8.81034120550871,22.96874713897705,9.596491205508709,22.50390713897705Q10.382671205508709,22.03905713897705,10.870571205508709,21.21874713897705Q11.33147120550871,20.39843713897705,11.33147120550871,19.46874713897705Q11.33147120550871,18.53905713897705,10.870571205508709,17.71874713897705Q10.382671205508709,16.89843713897705,9.596491205508709,16.43358713897705Q8.81034120550871,15.96874713897705,7.861551205508709,15.96874713897705Q6.912751205508709,15.96874713897705,6.126601205508709,16.43358713897705Q5.340461205508709,16.89843713897705,4.8525112055087085,17.71874713897705Q4.391671205508709,18.53905713897705,4.391671205508709,19.46874713897705Q4.391671205508709,20.39843713897705,4.8525112055087085,21.21874713897705Q5.340461205508709,22.03905713897705,6.126601205508709,22.50390713897705Q6.912751205508709,22.96874713897705,7.861551205508709,22.96874713897705Z" fill="#6B7280" fill-opacity="1" style="mix-blend-mode:passthrough"/></g></g></g></svg>