<svg xmlns="http://www.w3.org/2000/svg" xmlns:xlink="http://www.w3.org/1999/xlink" fill="none" version="1.1" width="14" height="14" viewBox="0 0 14 14"><defs><clipPath id="master_svg0_1_4216"><rect x="0" y="0" width="14" height="14" rx="0"/></clipPath></defs><g clip-path="url(#master_svg0_1_4216)"><g transform="matrix(1,0,0,-1,0,26.6875)"><g><path d="M6.17969,13.671875L6.09766,13.726562L6.17969,13.671875L6.09766,13.726562L1.3125,18.18359Q0.0273438,19.41406,0,21.19141L0,21.27344Q0.0273438,22.75,0.929688,23.84375Q1.80469,24.91015,3.25391,25.21095Q4.94922,25.51175,6.31641,24.554650000000002Q6.69922,24.30855,7,23.95315Q7.16406,24.144550000000002,7.38281,24.30855Q7.51953,24.445349999999998,7.68359,24.554650000000002Q9.05078,25.51175,10.7461,25.23825Q12.1953,24.93755,13.0703,23.84375Q13.9727,22.75,14,21.27344L14,21.19141Q13.9727,19.41406,12.6875,18.18359L7.90234,13.726562L7.82031,13.671875Q7.46484,13.34375,7,13.34375Q6.53516,13.34375,6.17969,13.671875ZM6.53516,22.503909999999998L6.50781,22.53125L6.01562,23.07813Q5.52344,23.62495,4.86719,23.84375Q4.21094,24.06255,3.5,23.92575Q2.54297,23.73435,1.94141,22.996090000000002Q1.33984,22.285159999999998,1.3125,21.27344L1.3125,21.19141Q1.33984,19.98828,2.21484,19.14063L7,14.68359L11.7852,19.14063Q12.6602,19.98828,12.6875,21.19141L12.6875,21.27344Q12.6602,22.285159999999998,12.0586,22.996090000000002Q11.457,23.73435,10.5,23.92575Q9.78906,24.06255,9.13281,23.84375Q8.47656,23.62495,7.98438,23.07813L7.49219,22.53125L7.46484,22.503909999999998Q7.27344,22.3125,7,22.3125Q6.72656,22.3125,6.53516,22.503909999999998Z" fill="#6B7280" fill-opacity="1" style="mix-blend-mode:passthrough"/></g></g></g></svg>