<svg xmlns="http://www.w3.org/2000/svg" xmlns:xlink="http://www.w3.org/1999/xlink" fill="none" version="1.1" width="14" height="14" viewBox="0 0 14 14"><defs><clipPath id="master_svg0_1_4212"><rect x="0" y="0" width="14" height="14" rx="0"/></clipPath></defs><g clip-path="url(#master_svg0_1_4212)"><g transform="matrix(1,0,0,-1,0,26.68752098083496)"><g><path d="M3.4318733631002902,15.777350490417481Q3.9766233631002903,16.16017049041748,4.63032336310029,15.94142049041748Q5.7198133631002905,15.53126049041748,7.02720336310029,15.53126049041748Q9.61475336310029,15.61329049041748,11.14004336310029,16.89845049041748Q12.665343363100291,18.21095049041748,12.69254336310029,19.90626049041748Q12.665343363100291,21.60157049041748,11.14004336310029,22.91407049041748Q9.61475336310029,24.19926049041748,7.02720336310029,24.28126049041748Q4.43965336310029,24.19926049041748,2.91436336310029,22.91407049041748Q1.3890733631002903,21.60157049041748,1.3618333631002904,19.90626049041748Q1.3618333631002904,18.56642049041748,2.34238336310029,17.47267049041748Q2.6964633631002903,17.06251049041748,2.6692333631002905,16.48829049041748Q2.5875133631002902,15.75001049041748,2.34238336310029,15.148450490417481Q3.05055336310029,15.50392049041748,3.4318733631002902,15.777350490417481ZM0.6264273631002903,14.65626049041748Q0.7081393631002904,14.76564049041748,0.7626143631002903,14.87501049041748Q1.2256533631002904,15.585950490417481,1.3618333631002904,16.59767049041748Q0.0816807631002903,18.01954049041748,0.0544433631002903,19.90626049041748Q0.0816807631002903,21.49220049041748,1.0077503631002904,22.777350490417483Q1.9338233631002903,24.062560490417482,3.5135833631002904,24.82816049041748Q5.06611336310029,25.56646049041748,7.02720336310029,25.59376049041748Q8.98829336310029,25.56646049041748,10.54084336310029,24.82816049041748Q12.12054336310029,24.062560490417482,13.04664336310029,22.777350490417483Q13.97274336310029,21.49220049041748,13.99994336310029,19.90626049041748Q13.97274336310029,18.32032049041748,13.04664336310029,17.03517049041748Q12.12054336310029,15.75001049041748,10.54084336310029,14.98438049041748Q8.98829336310029,14.24610449041748,7.02720336310029,14.21876049041748Q5.50191336310029,14.21876049041748,4.1945233631002905,14.710950490417481Q3.6770133631002904,14.32813549041748,2.7237033631002903,13.863291490417481Q2.0972433631002905,13.58985449041748,1.3346033631002903,13.42579169041748L1.3073633631002903,13.42579169041748L1.2801233631002904,13.42579169041748Q1.1167033631002903,13.371104290417481,0.9260383631002903,13.371104290417481Q0.8988013631002904,13.371104290417481,0.8988013631002904,13.371104290417481Q0.7081393631002904,13.34376049041748,0.4902413631002903,13.34376049041748Q0.1906303631002903,13.34376049041748,0.0816807631002903,13.617198490417481Q-0.00003133689970970244,13.89063549041748,0.16339236310029032,14.082041490417481Q0.3540543631002903,14.24610449041748,0.4902413631002903,14.464850490417481Q0.5447153631002903,14.54688049041748,0.6264273631002903,14.65626049041748Z" fill="#6B7280" fill-opacity="1" style="mix-blend-mode:passthrough"/></g></g></g></svg>