<svg width="800" height="800" viewBox="0 0 800 800" xmlns="http://www.w3.org/2000/svg">
  <g fill="#000">
    <!-- Graduation cap with checkmark -->
    <path d="M511.2 223.2L390.4 347.2c-5.6 5.6-14.4 5.6-20 0l-71.2-70.4c-5.6-5.6-5.6-14.4 0-20 5.6-5.6 14.4-5.6 20 0l61.6 60.8 109.6-113.6c5.6-5.6 14.4-5.6 20 0 5.6 5.6 5.6 14.4 0 20z"/>
    <path d="M675.2 295.2L424 174.4c-16-8-33.6-8-49.6 0L123.2 295.2c-16 8-16 30.4 0 38.4l76 38.4v97.6c0 16 8.8 30.4 22.4 38.4 41.6 22.4 168 84.8 168 84.8 8 4 16.8 6.4 25.6 6.4 8.8 0 18.4-2.4 25.6-6.4 0 0 126.4-63.2 168-84.8 13.6-7.2 22.4-22.4 22.4-38.4v-97.6l44-22.4c6.4-3.2 10.4-9.6 10.4-16.8 0-7.2-4-13.6-10.4-16.8zm-116 178.4c0 4-2.4 8-6.4 10.4-42.4 21.6-168 84.8-168 84.8-2.4 0.8-4.8 1.6-7.2 1.6-2.4 0-5.6-0.8-7.2-1.6 0 0-125.6-63.2-168-84.8-4-2.4-6.4-6.4-6.4-10.4v-81.6l172 86.4c8 4 16.8 6.4 25.6 6.4 8.8 0 18.4-2.4 25.6-6.4l140-70.4v81.6z"/>
    <!-- HACKPLE text -->
    <path d="M183.2 640v-120h40v40h60v-40h40v120h-40v-40h-60v40h-40z"/>
    <path d="M343.2 640l60-120h40l60 120h-44l-8-20h-56l-8 20h-44zm72-60h32l-16-40-16 40z"/>
    <path d="M523.2 640v-120h40v44l36-44h48l-44 52 48 68h-48l-28-40-12 12v28h-40z"/>
    <path d="M623.2 640v-120h40v120h-40z"/>
    <path d="M683.2 640v-120h40v80h60v40h-100z"/>
    <path d="M783.2 640v-120h100v40h-60v20h60v40h-60v20h60v40h-100z"/>
  </g>
</svg> 